<svg width="40" height="42" viewBox="0 0 40 42" fill="none" xmlns="http://www.w3.org/2000/svg">
<path d="M30.4167 16.0275L30.2587 13.8979C30.114 11.9469 28.428 10.4354 26.3968 10.4354H22.2584M7.5 36.5319H5.12194C2.87501 36.5319 1.09995 34.6963 1.26004 32.5382L2.6428 13.8979C2.78752 11.9469 4.47344 10.4354 6.5047 10.4354H10.6431M10.6431 10.4354V6.70734C10.6431 3.6189 13.2433 1.11523 16.4507 1.11523C19.6582 1.11523 22.2584 3.61891 22.2584 6.70734V10.4354M10.6431 10.4354H22.2584M30.4167 28.1986C30.4167 30.4998 28.5512 32.3652 26.25 32.3652C23.9488 32.3652 22.0833 30.4998 22.0833 28.1986M17.9167 40.6986H34.5833C36.8845 40.6986 38.75 38.8331 38.75 36.5319V26.1152C38.75 23.814 36.8845 21.9486 34.5833 21.9486H17.9167C15.6155 21.9486 13.75 23.814 13.75 26.1152V36.5319C13.75 38.8331 15.6155 40.6986 17.9167 40.6986Z" stroke="#161647" stroke-linecap="round"/>
</svg>
