<svg width="11" height="15" viewBox="0 0 11 15" fill="none" xmlns="http://www.w3.org/2000/svg">
<path d="M0.0963581 1.29679C0.0963581 1.02624 0.273024 0.857178 0.481809 0.857178C0.56903 0.868747 0.651972 0.903675 0.72271 0.958632L5.89414 4.18839L10.7122 7.31664C10.8344 7.39239 10.9258 7.51277 10.9692 7.65485C11.0044 7.7655 11.0095 7.88432 10.984 7.99787C10.9585 8.11142 10.9033 8.21517 10.8247 8.29743L10.6641 8.41581L0.658473 14.7569C0.353327 14.9599 0.160598 14.8584 0.0321153 14.4187V14.182C0.0627825 14.0888 0.100372 13.9984 0.144537 13.9115L3.3566 7.97614C3.38013 7.94165 3.39279 7.90023 3.39279 7.85776C3.39279 7.81529 3.38013 7.77388 3.3566 7.73938L0.224844 2.00702C0.144542 1.83793 0.0642413 1.6688 0 1.4997L0.0963581 1.29679Z" fill="white"/>
</svg>
