<svg width="51" height="52" viewBox="0 0 51 52" fill="none" xmlns="http://www.w3.org/2000/svg">
<path d="M13.8889 45.3932C13.8889 48.4614 11.4016 50.9487 8.33333 50.9487C5.26508 50.9487 2.77778 48.4614 2.77778 45.3932C2.77778 42.3249 5.26508 39.8376 8.33333 39.8376C11.4016 39.8376 13.8889 42.3249 13.8889 45.3932ZM13.8889 45.3932H36.1111C39.1794 45.3932 41.6667 42.9059 41.6667 39.8376V28.7265M36.1111 6.50429C36.1111 9.57253 38.5984 12.0598 41.6667 12.0598C44.7349 12.0598 47.2222 9.57253 47.2222 6.50429C47.2222 3.43604 44.7349 0.94873 41.6667 0.94873C38.5984 0.94873 36.1111 3.43604 36.1111 6.50429ZM36.1111 6.50429H13.8889C10.8206 6.50429 8.33333 8.99159 8.33333 12.0598V23.171M50 34.2821L42.6488 26.3857C42.1064 25.8031 41.227 25.8031 40.6846 26.3857L33.3333 34.2821M16.6667 17.6154L9.31542 25.5118C8.77303 26.0944 7.89363 26.0944 7.35124 25.5118L0 17.6154" stroke="#161647" stroke-linecap="round"/>
</svg>
