<svg width="51" height="42" viewBox="0 0 51 42" fill="none" xmlns="http://www.w3.org/2000/svg">
<path d="M30 34.2821V2.28206C30 1.54568 29.4404 0.94873 28.75 0.94873H1.25C0.559644 0.94873 0 1.54569 0 2.28206V34.2821C0 35.0184 0.559644 35.6154 1.25 35.6154H5M30 34.2821C30 35.0184 29.4404 35.6154 28.75 35.6154H15M30 34.2821V10.2821C30 9.54568 30.5596 8.94873 31.25 8.94873H39.4822C39.8138 8.94873 40.1317 9.08921 40.3661 9.33926L49.6339 19.2249C49.8683 19.4749 50 19.8141 50 20.1677V34.2821C50 35.0184 49.4404 35.6154 48.75 35.6154H45M30 34.2821C30 35.0184 30.5596 35.6154 31.25 35.6154H35M5 35.6154C5 38.5609 7.23858 40.9487 10 40.9487C12.7614 40.9487 15 38.5609 15 35.6154M5 35.6154C5 32.6699 7.23858 30.2821 10 30.2821C12.7614 30.2821 15 32.6699 15 35.6154M35 35.6154C35 38.5609 37.2386 40.9487 40 40.9487C42.7614 40.9487 45 38.5609 45 35.6154M35 35.6154C35 32.6699 37.2386 30.2821 40 30.2821C42.7614 30.2821 45 32.6699 45 35.6154" stroke="#161647"/>
</svg>
